<svg xmlns="http://www.w3.org/2000/svg" viewBox="0 0 106 106"><defs><style>.cls-1{fill:#43d490;}.cls-2{opacity:0.15;}.cls-3{fill:#fff;}.cls-4{fill:#485761;}.cls-5{fill:#171c1f;}.cls-6{opacity:0.1;}</style></defs><title>battery</title><g id="Battery"><g id="Fill"><rect class="cls-1" x="2" y="19" width="92" height="68" rx="6" ry="6"/></g><g id="Top_Highlight" data-name="Top Highlight" class="cls-2"><path class="cls-3" d="M88,19H8a6,6,0,0,0-6,6v4H94V25A6,6,0,0,0,88,19Z"/></g><g id="Bottom_Shadow" data-name="Bottom Shadow" class="cls-2"><path d="M2,77v4a6,6,0,0,0,6,6H88a6,6,0,0,0,6-6V77Z"/></g><g id="Gray"><path class="cls-4" d="M98,39H94V67h4a6,6,0,0,0,6-6V45A6,6,0,0,0,98,39Z"/></g><g id="White"><polygon class="cls-3" points="45 42 45 53 25 53 51 64 51 53 71 53 45 42"/></g><g id="Inner_Lines_1" data-name="Inner Lines 1" class="cls-2"><rect x="84" y="21" width="2" height="64"/></g><g id="Inner_Lines_2" data-name="Inner Lines 2"><path class="cls-5" d="M71.27,52.06,45.42,41.13A1,1,0,0,0,44,42V52h-19a1,1,0,0,0-.39,1.92l26,11A1,1,0,0,0,52,64V54H71a1,1,0,0,0,.28-2ZM51,52a1,1,0,0,0-1,1V62.5L30,54H45a1,1,0,0,0,1-1V43.55l20,8.47Z"/></g><g id="Shadows" class="cls-6"><path d="M88,83H8a4,4,0,0,1-4-4v2a4,4,0,0,0,4,4H88a4,4,0,0,0,4-4V79A4,4,0,0,1,88,83ZM98,63H96v2h2a4,4,0,0,0,4-4V59A4,4,0,0,1,98,63ZM71,58a1,1,0,0,0,1-1v0h0V53H51v5Zm-46.31-.08,26,11A1,1,0,0,0,52,68V64a1,1,0,0,1-1.39.92L24,53v4h.08A1,1,0,0,0,24.68,57.94Z"/></g><g id="Outline"><path class="cls-5" d="M98,37H96V25a8,8,0,0,0-8-8H8a8,8,0,0,0-8,8V81a8,8,0,0,0,8,8H88a8,8,0,0,0,8-8V69h2a8,8,0,0,0,8-8V45A8,8,0,0,0,98,37ZM92,81a4,4,0,0,1-4,4H8a4,4,0,0,1-4-4V25a4,4,0,0,1,4-4H88a4,4,0,0,1,4,4Zm10-20a4,4,0,0,1-4,4H96V41h2a4,4,0,0,1,4,4Z"/></g></g></svg>